<svg width="931" height="1009" viewBox="0 0 931 1009" fill="none" xmlns="http://www.w3.org/2000/svg">
<path d="M53.1139 7.72173C56.3329 8.22999 59.3401 9.03475 62.1356 10.136C64.9311 11.1525 67.5995 12.3808 70.1408 13.8209L64.2957 22.9697C61.5003 21.2755 58.6201 19.8354 55.6552 18.6495C52.6903 17.3788 49.1748 16.7435 45.1087 16.7435C40.4496 16.7435 36.6376 17.76 33.6727 19.7931C30.7925 21.7414 29.3524 24.3251 29.3524 27.5441C29.3524 30.2549 30.3689 32.7539 32.402 35.0411C34.5198 37.3283 38.2894 39.9543 43.7109 42.9192C48.7089 45.63 52.6056 48.2984 55.4011 50.9244C58.2813 53.4657 60.3143 56.1765 61.5003 59.0567C62.6862 61.8521 63.2792 65.0288 63.2792 68.5867C63.2792 75.533 60.9073 80.9545 56.1635 84.8512C51.5044 88.7479 45.4475 91.0351 37.9929 91.7128L36.5952 106.071H25.4133L29.0983 91.7128C24.6933 91.2892 20.7119 90.3574 17.154 88.9173C13.5961 87.3925 10.3348 85.4442 7.36987 83.0723L14.6127 74.0505C17.3234 76.5072 20.3307 78.4979 23.6344 80.0227C26.9381 81.4628 30.7501 82.1828 35.0704 82.1828C40.0684 82.1828 44.0921 81.0816 47.1417 78.8791C50.1913 76.5919 51.7161 73.5423 51.7161 69.7303C51.7161 67.6125 51.2502 65.6641 50.3184 63.8852C49.3866 62.1063 47.7347 60.2426 45.3628 58.2943C42.9909 56.3459 39.6024 54.1434 35.1975 51.6868C29.0983 48.2136 24.7356 44.8252 22.1096 41.5215C19.5683 38.2177 18.2976 33.9822 18.2976 28.8148C18.2976 24.6639 19.3988 21.0214 21.6013 17.8871C23.8038 14.7527 26.8534 12.2538 30.7501 10.3901C34.6468 8.52648 39.1365 7.50995 44.2192 7.34052L45.6169 -7.01801H56.7988L53.1139 7.72173ZM87.8805 5.05332H154.591L152.685 15.7269H125.365L111.642 94H99.5706L113.294 15.7269H85.9745L87.8805 5.05332ZM135.421 89.2985L184.215 5.05332H197.811L217.252 92.6023L205.689 95.2707L200.352 69.8573H159.183L145.078 95.0165L135.421 89.2985ZM164.901 59.692H198.192L189.171 16.8705L164.901 59.692ZM243.566 6.06986C247.463 5.30746 251.232 4.71448 254.875 4.29092C258.517 3.78266 262.668 3.52853 267.327 3.52853C274.189 3.52853 279.822 4.58741 284.227 6.70519C288.717 8.73826 292.063 11.449 294.266 14.8375C296.468 18.1412 297.569 21.6991 297.569 25.5111C297.569 31.2714 295.96 35.9729 292.741 39.6155C289.522 43.1733 284.778 45.8841 278.509 47.7477C283.253 49.5267 287.15 52.068 290.199 55.3717C293.249 58.6755 294.774 62.9534 294.774 68.2055C294.774 74.3047 292.953 79.3873 289.31 83.4535C285.667 87.5196 280.839 90.5692 274.824 92.6023C268.895 94.5506 262.457 95.5248 255.51 95.5248C249.496 95.5248 244.244 95.0589 239.754 94.1271C235.264 93.28 231.537 92.3905 228.572 91.4587L243.566 6.06986ZM266.819 13.0585C264.193 13.0585 261.864 13.1432 259.831 13.3127C257.797 13.4821 255.934 13.7362 254.24 14.0751L249.03 43.4275H261.482C269.699 43.4275 275.799 41.8179 279.78 38.5989C283.761 35.2952 285.752 31.4832 285.752 27.1629C285.752 23.1815 284.143 19.8354 280.924 17.1247C277.789 14.4139 273.088 13.0585 266.819 13.0585ZM247.378 52.8304L242.041 83.7076C246.531 84.8936 251.317 85.4865 256.4 85.4865C264.701 85.4865 271.097 83.9194 275.587 80.7851C280.161 77.566 282.448 73.4999 282.448 68.5867C282.448 65.7065 281.644 63.0804 280.034 60.7085C278.425 58.3366 275.841 56.4306 272.283 54.9905C268.81 53.5504 264.193 52.8304 258.433 52.8304H247.378ZM375.993 94.6353C371.334 94.6353 367.776 93.5341 365.32 91.3316C362.863 89.0444 361.635 85.5289 361.635 80.7851V77.9896C358.246 83.3264 354.223 87.6043 349.563 90.8233C344.989 93.9576 339.567 95.5248 333.299 95.5248C328.979 95.5248 324.997 94.593 321.355 92.7293C317.797 90.8657 314.917 88.1126 312.714 84.47C310.596 80.7427 309.537 76.253 309.537 71.0009C309.537 69.0526 309.622 67.2736 309.792 65.6641C309.961 63.9699 310.215 62.1063 310.554 60.0732L319.957 5.05332H332.028L322.244 62.7416C321.99 64.2664 321.821 65.5794 321.736 66.6807C321.651 67.6972 321.609 68.8408 321.609 70.1115C321.609 74.6859 322.964 78.3284 325.675 81.0392C328.386 83.6652 332.071 84.9783 336.73 84.9783C340.626 84.9783 344.481 83.7923 348.293 81.4204C352.189 79.0485 355.578 75.5753 358.458 71.0009C361.423 66.4265 363.456 60.878 364.557 54.3552L373.325 5.05332H385.396L372.944 75.4483C372.859 75.8718 372.774 76.3801 372.69 76.9731C372.69 77.4813 372.69 78.032 372.69 78.6249C372.69 80.9121 373.325 82.564 374.596 83.5805C375.951 84.5971 377.815 85.1053 380.186 85.1053L375.993 94.6353Z" fill="black" fill-opacity="0.2"/>
<path d="M492.114 7.72173C495.333 8.22999 498.34 9.03475 501.136 10.136C503.931 11.1525 506.599 12.3808 509.141 13.8209L503.296 22.9697C500.5 21.2755 497.62 19.8354 494.655 18.6495C491.69 17.3788 488.175 16.7435 484.109 16.7435C479.45 16.7435 475.638 17.76 472.673 19.7931C469.792 21.7414 468.352 24.3251 468.352 27.5441C468.352 30.2549 469.369 32.7539 471.402 35.0411C473.52 37.3283 477.289 39.9543 482.711 42.9192C487.709 45.63 491.606 48.2984 494.401 50.9244C497.281 53.4657 499.314 56.1765 500.5 59.0567C501.686 61.8521 502.279 65.0288 502.279 68.5867C502.279 75.533 499.907 80.9545 495.163 84.8512C490.504 88.7479 484.448 91.0351 476.993 91.7128L475.595 106.071H464.413L468.098 91.7128C463.693 91.2892 459.712 90.3574 456.154 88.9173C452.596 87.3925 449.335 85.4442 446.37 83.0723L453.613 74.0505C456.323 76.5072 459.331 78.4979 462.634 80.0227C465.938 81.4628 469.75 82.1828 474.07 82.1828C479.068 82.1828 483.092 81.0816 486.142 78.8791C489.191 76.5919 490.716 73.5423 490.716 69.7303C490.716 67.6125 490.25 65.6641 489.318 63.8852C488.387 62.1063 486.735 60.2426 484.363 58.2943C481.991 56.3459 478.602 54.1434 474.197 51.6868C468.098 48.2136 463.736 44.8252 461.11 41.5215C458.568 38.2177 457.298 33.9822 457.298 28.8148C457.298 24.6639 458.399 21.0214 460.601 17.8871C462.804 14.7527 465.853 12.2538 469.75 10.3901C473.647 8.52648 478.137 7.50995 483.219 7.34052L484.617 -7.01801H495.799L492.114 7.72173ZM526.881 5.05332H593.591L591.685 15.7269H564.365L550.642 94H538.571L552.294 15.7269H524.975L526.881 5.05332ZM574.421 89.2985L623.215 5.05332H636.811L656.252 92.6023L644.689 95.2707L639.352 69.8573H598.183L584.078 95.0165L574.421 89.2985ZM603.901 59.692H637.192L628.171 16.8705L603.901 59.692ZM682.566 6.06986C686.463 5.30746 690.232 4.71448 693.875 4.29092C697.517 3.78266 701.668 3.52853 706.327 3.52853C713.189 3.52853 718.822 4.58741 723.227 6.70519C727.717 8.73826 731.063 11.449 733.266 14.8375C735.468 18.1412 736.569 21.6991 736.569 25.5111C736.569 31.2714 734.96 35.9729 731.741 39.6155C728.522 43.1733 723.778 45.8841 717.509 47.7477C722.253 49.5267 726.15 52.068 729.199 55.3717C732.249 58.6755 733.774 62.9534 733.774 68.2055C733.774 74.3047 731.953 79.3873 728.31 83.4535C724.667 87.5196 719.839 90.5692 713.824 92.6023C707.895 94.5506 701.457 95.5248 694.51 95.5248C688.496 95.5248 683.244 95.0589 678.754 94.1271C674.264 93.28 670.537 92.3905 667.572 91.4587L682.566 6.06986ZM705.819 13.0585C703.193 13.0585 700.864 13.1432 698.831 13.3127C696.797 13.4821 694.934 13.7362 693.24 14.0751L688.03 43.4275H700.482C708.699 43.4275 714.799 41.8179 718.78 38.5989C722.761 35.2952 724.752 31.4832 724.752 27.1629C724.752 23.1815 723.143 19.8354 719.924 17.1247C716.789 14.4139 712.088 13.0585 705.819 13.0585ZM686.378 52.8304L681.041 83.7076C685.531 84.8936 690.317 85.4865 695.4 85.4865C703.701 85.4865 710.097 83.9194 714.587 80.7851C719.161 77.566 721.448 73.4999 721.448 68.5867C721.448 65.7065 720.644 63.0804 719.034 60.7085C717.425 58.3366 714.841 56.4306 711.283 54.9905C707.81 53.5504 703.193 52.8304 697.433 52.8304H686.378ZM814.993 94.6353C810.334 94.6353 806.776 93.5341 804.32 91.3316C801.863 89.0444 800.635 85.5289 800.635 80.7851V77.9896C797.246 83.3264 793.223 87.6043 788.563 90.8233C783.989 93.9576 778.567 95.5248 772.299 95.5248C767.979 95.5248 763.997 94.593 760.355 92.7293C756.797 90.8657 753.917 88.1126 751.714 84.47C749.596 80.7427 748.537 76.253 748.537 71.0009C748.537 69.0526 748.622 67.2736 748.792 65.6641C748.961 63.9699 749.215 62.1063 749.554 60.0732L758.957 5.05332H771.028L761.244 62.7416C760.99 64.2664 760.821 65.5794 760.736 66.6807C760.651 67.6972 760.609 68.8408 760.609 70.1115C760.609 74.6859 761.964 78.3284 764.675 81.0392C767.386 83.6652 771.071 84.9783 775.73 84.9783C779.626 84.9783 783.481 83.7923 787.293 81.4204C791.189 79.0485 794.578 75.5753 797.458 71.0009C800.423 66.4265 802.456 60.878 803.557 54.3552L812.325 5.05332H824.396L811.944 75.4483C811.859 75.8718 811.774 76.3801 811.69 76.9731C811.69 77.4813 811.69 78.032 811.69 78.6249C811.69 80.9121 812.325 82.564 813.596 83.5805C814.951 84.5971 816.815 85.1053 819.186 85.1053L814.993 94.6353Z" fill="black" fill-opacity="0.2"/>
<path d="M931.114 7.72173C934.333 8.22999 937.34 9.03475 940.136 10.136C942.931 11.1525 945.599 12.3808 948.141 13.8209L942.296 22.9697C939.5 21.2755 936.62 19.8354 933.655 18.6495C930.69 17.3788 927.175 16.7435 923.109 16.7435C918.45 16.7435 914.638 17.76 911.673 19.7931C908.792 21.7414 907.352 24.3251 907.352 27.5441C907.352 30.2549 908.369 32.7539 910.402 35.0411C912.52 37.3283 916.289 39.9543 921.711 42.9192C926.709 45.63 930.606 48.2984 933.401 50.9244C936.281 53.4657 938.314 56.1765 939.5 59.0567C940.686 61.8521 941.279 65.0288 941.279 68.5867C941.279 75.533 938.907 80.9545 934.163 84.8512C929.504 88.7479 923.448 91.0351 915.993 91.7128L914.595 106.071H903.413L907.098 91.7128C902.693 91.2892 898.712 90.3574 895.154 88.9173C891.596 87.3925 888.335 85.4442 885.37 83.0723L892.613 74.0505C895.323 76.5072 898.331 78.4979 901.634 80.0227C904.938 81.4628 908.75 82.1828 913.07 82.1828C918.068 82.1828 922.092 81.0816 925.142 78.8791C928.191 76.5919 929.716 73.5423 929.716 69.7303C929.716 67.6125 929.25 65.6641 928.318 63.8852C927.387 62.1063 925.735 60.2426 923.363 58.2943C920.991 56.3459 917.602 54.1434 913.197 51.6868C907.098 48.2136 902.736 44.8252 900.11 41.5215C897.568 38.2177 896.298 33.9822 896.298 28.8148C896.298 24.6639 897.399 21.0214 899.601 17.8871C901.804 14.7527 904.853 12.2538 908.75 10.3901C912.647 8.52648 917.137 7.50995 922.219 7.34052L923.617 -7.01801H934.799L931.114 7.72173ZM954.826 84.5971L1010.61 15.4728H967.278L969.057 5.05332H1027.38L1025.86 14.2021L969.693 83.3264H1017.98L1016.07 94H953.174L954.826 84.5971ZM1100.12 94.6353C1095.46 94.6353 1091.91 93.5341 1089.45 91.3316C1086.99 89.0444 1085.76 85.5289 1085.76 80.7851V77.9896C1082.38 83.3264 1078.35 87.6043 1073.69 90.8233C1069.12 93.9576 1063.7 95.5248 1057.43 95.5248C1053.11 95.5248 1049.13 94.593 1045.48 92.7293C1041.93 90.8657 1039.05 88.1126 1036.84 84.47C1034.73 80.7427 1033.67 76.253 1033.67 71.0009C1033.67 69.0526 1033.75 67.2736 1033.92 65.6641C1034.09 63.9699 1034.35 62.1063 1034.68 60.0732L1044.09 5.05332H1056.16L1046.37 62.7416C1046.12 64.2664 1045.95 65.5794 1045.87 66.6807C1045.78 67.6972 1045.74 68.8408 1045.74 70.1115C1045.74 74.6859 1047.09 78.3284 1049.81 81.0392C1052.52 83.6652 1056.2 84.9783 1060.86 84.9783C1064.76 84.9783 1068.61 83.7923 1072.42 81.4204C1076.32 79.0485 1079.71 75.5753 1082.59 71.0009C1085.55 66.4265 1087.59 60.878 1088.69 54.3552L1097.46 5.05332H1109.53L1097.07 75.4483C1096.99 75.8718 1096.9 76.3801 1096.82 76.9731C1096.82 77.4813 1096.82 78.032 1096.82 78.6249C1096.82 80.9121 1097.46 82.564 1098.73 83.5805C1100.08 84.5971 1101.94 85.1053 1104.32 85.1053L1100.12 94.6353ZM1168.57 74.0505C1170.94 76.9307 1172.93 79.1332 1174.54 80.658C1176.24 82.1828 1177.8 83.2417 1179.24 83.8347C1180.77 84.3429 1182.46 84.5971 1184.33 84.5971L1179.88 94.8895C1176.15 94.8895 1172.93 94.1271 1170.22 92.6023C1167.6 91.0775 1164.8 88.4514 1161.84 84.7241L1136.93 52.9575L1129.69 94H1117.62L1133.25 5.05332H1145.32L1138.33 44.5711L1180.51 5.30746L1187.88 13.4397L1148.49 48.7643L1168.57 74.0505ZM1209.06 5.05332H1261.8L1260.02 15.4728H1219.23L1214.53 42.538H1249.47L1247.69 52.7033H1212.75L1207.28 83.5805H1247.95L1246.17 94H1193.43L1209.06 5.05332ZM1277.81 6.32399C1281.62 5.6463 1285.18 5.09568 1288.48 4.67213C1291.87 4.24857 1295.81 4.03679 1300.3 4.03679C1306.73 4.03679 1312.16 5.05333 1316.56 7.08639C1320.97 9.11946 1324.31 11.8726 1326.6 15.3457C1328.89 18.7342 1330.03 22.5038 1330.03 26.6547C1330.03 34.3634 1327.57 40.1661 1322.66 44.0628C1317.75 47.9595 1311.27 50.5008 1303.22 51.6868C1306.69 53.2116 1309.4 55.1176 1311.35 57.4048C1313.3 59.6073 1314.82 61.9368 1315.93 64.3935C1317.03 66.8501 1317.92 69.2644 1318.59 71.6363C1319.36 74.0082 1320.16 76.1683 1321.01 78.1167C1321.86 80.065 1323.04 81.6322 1324.57 82.8181C1326.18 83.9194 1328.38 84.47 1331.17 84.47L1326.73 94.8895C1323 94.8895 1319.99 94.1694 1317.7 92.7293C1315.42 91.2892 1313.55 89.4256 1312.11 87.1384C1310.76 84.7665 1309.53 82.1828 1308.43 79.3873C1307.41 76.5072 1306.31 73.6693 1305.12 70.8739C1303.94 67.9937 1302.41 65.41 1300.55 63.1228C1298.69 60.7509 1296.19 58.8449 1293.05 57.4048C1290 55.9647 1286.06 55.2447 1281.24 55.2447L1274.37 94H1262.3L1277.81 6.32399ZM1299.53 14.0751C1297.33 14.0751 1295.3 14.1598 1293.43 14.3292C1291.66 14.4986 1289.96 14.7527 1288.35 15.0916L1283.02 45.0793H1293.56C1301.02 45.0793 1306.95 43.5545 1311.35 40.5049C1315.84 37.4553 1318.09 33.3468 1318.09 28.1795C1318.09 24.0286 1316.43 20.6402 1313.13 18.0141C1309.91 15.3881 1305.38 14.0751 1299.53 14.0751Z" fill="black" fill-opacity="0.2"/>
<path d="M153.114 154.722C156.333 155.23 159.34 156.035 162.136 157.136C164.931 158.153 167.599 159.381 170.141 160.821L164.296 169.97C161.5 168.276 158.62 166.835 155.655 165.649C152.69 164.379 149.175 163.743 145.109 163.743C140.45 163.743 136.638 164.76 133.673 166.793C130.792 168.741 129.352 171.325 129.352 174.544C129.352 177.255 130.369 179.754 132.402 182.041C134.52 184.328 138.289 186.954 143.711 189.919C148.709 192.63 152.606 195.298 155.401 197.924C158.281 200.466 160.314 203.176 161.5 206.057C162.686 208.852 163.279 212.029 163.279 215.587C163.279 222.533 160.907 227.954 156.163 231.851C151.504 235.748 145.448 238.035 137.993 238.713L136.595 253.071H125.413L129.098 238.713C124.693 238.289 120.712 237.357 117.154 235.917C113.596 234.393 110.335 232.444 107.37 230.072L114.613 221.051C117.323 223.507 120.331 225.498 123.634 227.023C126.938 228.463 130.75 229.183 135.07 229.183C140.068 229.183 144.092 228.082 147.142 225.879C150.191 223.592 151.716 220.542 151.716 216.73C151.716 214.612 151.25 212.664 150.318 210.885C149.387 209.106 147.735 207.243 145.363 205.294C142.991 203.346 139.602 201.143 135.197 198.687C129.098 195.214 124.736 191.825 122.11 188.521C119.568 185.218 118.298 180.982 118.298 175.815C118.298 171.664 119.399 168.021 121.601 164.887C123.804 161.753 126.853 159.254 130.75 157.39C134.647 155.526 139.137 154.51 144.219 154.341L145.617 139.982H156.799L153.114 154.722ZM187.881 152.053H254.591L252.685 162.727H225.365L211.642 241H199.571L213.294 162.727H185.975L187.881 152.053ZM235.421 236.299L284.215 152.053H297.811L317.252 239.602L305.689 242.271L300.352 216.857H259.183L245.078 242.017L235.421 236.299ZM264.901 206.692H298.192L289.171 163.871L264.901 206.692ZM343.566 153.07C347.463 152.307 351.232 151.714 354.875 151.291C358.517 150.783 362.668 150.529 367.327 150.529C374.189 150.529 379.822 151.587 384.227 153.705C388.717 155.738 392.063 158.449 394.266 161.837C396.468 165.141 397.569 168.699 397.569 172.511C397.569 178.271 395.96 182.973 392.741 186.615C389.522 190.173 384.778 192.884 378.509 194.748C383.253 196.527 387.15 199.068 390.199 202.372C393.249 205.675 394.774 209.953 394.774 215.205C394.774 221.305 392.953 226.387 389.31 230.453C385.667 234.52 380.839 237.569 374.824 239.602C368.895 241.551 362.457 242.525 355.51 242.525C349.496 242.525 344.244 242.059 339.754 241.127C335.264 240.28 331.537 239.39 328.572 238.459L343.566 153.07ZM366.819 160.059C364.193 160.059 361.864 160.143 359.831 160.313C357.797 160.482 355.934 160.736 354.24 161.075L349.03 190.427H361.482C369.699 190.427 375.799 188.818 379.78 185.599C383.761 182.295 385.752 178.483 385.752 174.163C385.752 170.182 384.143 166.835 380.924 164.125C377.789 161.414 373.088 160.059 366.819 160.059ZM347.378 199.83L342.041 230.708C346.531 231.894 351.317 232.487 356.4 232.487C364.701 232.487 371.097 230.919 375.587 227.785C380.161 224.566 382.448 220.5 382.448 215.587C382.448 212.706 381.644 210.08 380.034 207.709C378.425 205.337 375.841 203.431 372.283 201.991C368.81 200.55 364.193 199.83 358.433 199.83H347.378ZM475.993 241.635C471.334 241.635 467.776 240.534 465.32 238.332C462.863 236.044 461.635 232.529 461.635 227.785V224.99C458.246 230.326 454.223 234.604 449.563 237.823C444.989 240.958 439.567 242.525 433.299 242.525C428.979 242.525 424.997 241.593 421.355 239.729C417.797 237.866 414.917 235.113 412.714 231.47C410.596 227.743 409.537 223.253 409.537 218.001C409.537 216.053 409.622 214.274 409.792 212.664C409.961 210.97 410.215 209.106 410.554 207.073L419.957 152.053H432.028L422.244 209.742C421.99 211.266 421.821 212.579 421.736 213.681C421.651 214.697 421.609 215.841 421.609 217.111C421.609 221.686 422.964 225.328 425.675 228.039C428.386 230.665 432.071 231.978 436.73 231.978C440.626 231.978 444.481 230.792 448.293 228.42C452.189 226.048 455.578 222.575 458.458 218.001C461.423 213.427 463.456 207.878 464.557 201.355L473.325 152.053H485.396L472.944 222.448C472.859 222.872 472.774 223.38 472.69 223.973C472.69 224.481 472.69 225.032 472.69 225.625C472.69 227.912 473.325 229.564 474.596 230.581C475.951 231.597 477.815 232.105 480.186 232.105L475.993 241.635Z" fill="black" fill-opacity="0.2"/>
<path d="M592.114 154.722C595.333 155.23 598.34 156.035 601.136 157.136C603.931 158.153 606.599 159.381 609.141 160.821L603.296 169.97C600.5 168.276 597.62 166.835 594.655 165.649C591.69 164.379 588.175 163.743 584.109 163.743C579.45 163.743 575.638 164.76 572.673 166.793C569.792 168.741 568.352 171.325 568.352 174.544C568.352 177.255 569.369 179.754 571.402 182.041C573.52 184.328 577.289 186.954 582.711 189.919C587.709 192.63 591.606 195.298 594.401 197.924C597.281 200.466 599.314 203.176 600.5 206.057C601.686 208.852 602.279 212.029 602.279 215.587C602.279 222.533 599.907 227.954 595.163 231.851C590.504 235.748 584.448 238.035 576.993 238.713L575.595 253.071H564.413L568.098 238.713C563.693 238.289 559.712 237.357 556.154 235.917C552.596 234.393 549.335 232.444 546.37 230.072L553.613 221.051C556.323 223.507 559.331 225.498 562.634 227.023C565.938 228.463 569.75 229.183 574.07 229.183C579.068 229.183 583.092 228.082 586.142 225.879C589.191 223.592 590.716 220.542 590.716 216.73C590.716 214.612 590.25 212.664 589.318 210.885C588.387 209.106 586.735 207.243 584.363 205.294C581.991 203.346 578.602 201.143 574.197 198.687C568.098 195.214 563.736 191.825 561.11 188.521C558.568 185.218 557.298 180.982 557.298 175.815C557.298 171.664 558.399 168.021 560.601 164.887C562.804 161.753 565.853 159.254 569.75 157.39C573.647 155.526 578.137 154.51 583.219 154.341L584.617 139.982H595.799L592.114 154.722ZM626.881 152.053H693.591L691.685 162.727H664.365L650.642 241H638.571L652.294 162.727H624.975L626.881 152.053ZM674.421 236.299L723.215 152.053H736.811L756.252 239.602L744.689 242.271L739.352 216.857H698.183L684.078 242.017L674.421 236.299ZM703.901 206.692H737.192L728.171 163.871L703.901 206.692ZM782.566 153.07C786.463 152.307 790.232 151.714 793.875 151.291C797.517 150.783 801.668 150.529 806.327 150.529C813.189 150.529 818.822 151.587 823.227 153.705C827.717 155.738 831.063 158.449 833.266 161.837C835.468 165.141 836.569 168.699 836.569 172.511C836.569 178.271 834.96 182.973 831.741 186.615C828.522 190.173 823.778 192.884 817.509 194.748C822.253 196.527 826.15 199.068 829.199 202.372C832.249 205.675 833.774 209.953 833.774 215.205C833.774 221.305 831.953 226.387 828.31 230.453C824.667 234.52 819.839 237.569 813.824 239.602C807.895 241.551 801.457 242.525 794.51 242.525C788.496 242.525 783.244 242.059 778.754 241.127C774.264 240.28 770.537 239.39 767.572 238.459L782.566 153.07ZM805.819 160.059C803.193 160.059 800.864 160.143 798.831 160.313C796.797 160.482 794.934 160.736 793.24 161.075L788.03 190.427H800.482C808.699 190.427 814.799 188.818 818.78 185.599C822.761 182.295 824.752 178.483 824.752 174.163C824.752 170.182 823.143 166.835 819.924 164.125C816.789 161.414 812.088 160.059 805.819 160.059ZM786.378 199.83L781.041 230.708C785.531 231.894 790.317 232.487 795.4 232.487C803.701 232.487 810.097 230.919 814.587 227.785C819.161 224.566 821.448 220.5 821.448 215.587C821.448 212.706 820.644 210.08 819.034 207.709C817.425 205.337 814.841 203.431 811.283 201.991C807.81 200.55 803.193 199.83 797.433 199.83H786.378ZM914.993 241.635C910.334 241.635 906.776 240.534 904.32 238.332C901.863 236.044 900.635 232.529 900.635 227.785V224.99C897.246 230.326 893.223 234.604 888.563 237.823C883.989 240.958 878.567 242.525 872.299 242.525C867.979 242.525 863.997 241.593 860.355 239.729C856.797 237.866 853.917 235.113 851.714 231.47C849.596 227.743 848.537 223.253 848.537 218.001C848.537 216.053 848.622 214.274 848.792 212.664C848.961 210.97 849.215 209.106 849.554 207.073L858.957 152.053H871.028L861.244 209.742C860.99 211.266 860.821 212.579 860.736 213.681C860.651 214.697 860.609 215.841 860.609 217.111C860.609 221.686 861.964 225.328 864.675 228.039C867.386 230.665 871.071 231.978 875.73 231.978C879.626 231.978 883.481 230.792 887.293 228.42C891.189 226.048 894.578 222.575 897.458 218.001C900.423 213.427 902.456 207.878 903.557 201.355L912.325 152.053H924.396L911.944 222.448C911.859 222.872 911.774 223.38 911.69 223.973C911.69 224.481 911.69 225.032 911.69 225.625C911.69 227.912 912.325 229.564 913.596 230.581C914.951 231.597 916.815 232.105 919.186 232.105L914.993 241.635Z" fill="black" fill-opacity="0.2"/>
<path d="M53.1139 301.722C56.3329 302.23 59.3401 303.035 62.1356 304.136C64.9311 305.153 67.5995 306.381 70.1408 307.821L64.2957 316.97C61.5003 315.276 58.6201 313.835 55.6552 312.649C52.6903 311.379 49.1748 310.743 45.1087 310.743C40.4496 310.743 36.6376 311.76 33.6727 313.793C30.7925 315.741 29.3524 318.325 29.3524 321.544C29.3524 324.255 30.3689 326.754 32.402 329.041C34.5198 331.328 38.2894 333.954 43.7109 336.919C48.7089 339.63 52.6056 342.298 55.4011 344.924C58.2813 347.466 60.3143 350.176 61.5003 353.057C62.6862 355.852 63.2792 359.029 63.2792 362.587C63.2792 369.533 60.9073 374.954 56.1635 378.851C51.5044 382.748 45.4475 385.035 37.9929 385.713L36.5952 400.071H25.4133L29.0983 385.713C24.6933 385.289 20.7119 384.357 17.154 382.917C13.5961 381.393 10.3348 379.444 7.36987 377.072L14.6127 368.051C17.3234 370.507 20.3307 372.498 23.6344 374.023C26.9381 375.463 30.7501 376.183 35.0704 376.183C40.0684 376.183 44.0921 375.082 47.1417 372.879C50.1913 370.592 51.7161 367.542 51.7161 363.73C51.7161 361.612 51.2502 359.664 50.3184 357.885C49.3866 356.106 47.7347 354.243 45.3628 352.294C42.9909 350.346 39.6024 348.143 35.1975 345.687C29.0983 342.214 24.7356 338.825 22.1096 335.521C19.5683 332.218 18.2976 327.982 18.2976 322.815C18.2976 318.664 19.3988 315.021 21.6013 311.887C23.8038 308.753 26.8534 306.254 30.7501 304.39C34.6468 302.526 39.1365 301.51 44.2192 301.341L45.6169 286.982H56.7988L53.1139 301.722ZM87.8805 299.053H154.591L152.685 309.727H125.365L111.642 388H99.5706L113.294 309.727H85.9745L87.8805 299.053ZM135.421 383.299L184.215 299.053H197.811L217.252 386.602L205.689 389.271L200.352 363.857H159.183L145.078 389.017L135.421 383.299ZM164.901 353.692H198.192L189.171 310.871L164.901 353.692ZM243.566 300.07C247.463 299.307 251.232 298.714 254.875 298.291C258.517 297.783 262.668 297.529 267.327 297.529C274.189 297.529 279.822 298.587 284.227 300.705C288.717 302.738 292.063 305.449 294.266 308.837C296.468 312.141 297.569 315.699 297.569 319.511C297.569 325.271 295.96 329.973 292.741 333.615C289.522 337.173 284.778 339.884 278.509 341.748C283.253 343.527 287.15 346.068 290.199 349.372C293.249 352.675 294.774 356.953 294.774 362.205C294.774 368.305 292.953 373.387 289.31 377.453C285.667 381.52 280.839 384.569 274.824 386.602C268.895 388.551 262.457 389.525 255.51 389.525C249.496 389.525 244.244 389.059 239.754 388.127C235.264 387.28 231.537 386.39 228.572 385.459L243.566 300.07ZM266.819 307.059C264.193 307.059 261.864 307.143 259.831 307.313C257.797 307.482 255.934 307.736 254.24 308.075L249.03 337.427H261.482C269.699 337.427 275.799 335.818 279.78 332.599C283.761 329.295 285.752 325.483 285.752 321.163C285.752 317.182 284.143 313.835 280.924 311.125C277.789 308.414 273.088 307.059 266.819 307.059ZM247.378 346.83L242.041 377.708C246.531 378.894 251.317 379.487 256.4 379.487C264.701 379.487 271.097 377.919 275.587 374.785C280.161 371.566 282.448 367.5 282.448 362.587C282.448 359.706 281.644 357.08 280.034 354.709C278.425 352.337 275.841 350.431 272.283 348.991C268.81 347.55 264.193 346.83 258.433 346.83H247.378ZM375.993 388.635C371.334 388.635 367.776 387.534 365.32 385.332C362.863 383.044 361.635 379.529 361.635 374.785V371.99C358.246 377.326 354.223 381.604 349.563 384.823C344.989 387.958 339.567 389.525 333.299 389.525C328.979 389.525 324.997 388.593 321.355 386.729C317.797 384.866 314.917 382.113 312.714 378.47C310.596 374.743 309.537 370.253 309.537 365.001C309.537 363.053 309.622 361.274 309.792 359.664C309.961 357.97 310.215 356.106 310.554 354.073L319.957 299.053H332.028L322.244 356.742C321.99 358.266 321.821 359.579 321.736 360.681C321.651 361.697 321.609 362.841 321.609 364.111C321.609 368.686 322.964 372.328 325.675 375.039C328.386 377.665 332.071 378.978 336.73 378.978C340.626 378.978 344.481 377.792 348.293 375.42C352.189 373.048 355.578 369.575 358.458 365.001C361.423 360.427 363.456 354.878 364.557 348.355L373.325 299.053H385.396L372.944 369.448C372.859 369.872 372.774 370.38 372.69 370.973C372.69 371.481 372.69 372.032 372.69 372.625C372.69 374.912 373.325 376.564 374.596 377.581C375.951 378.597 377.815 379.105 380.186 379.105L375.993 388.635Z" fill="black" fill-opacity="0.2"/>
<path d="M492.114 301.722C495.333 302.23 498.34 303.035 501.136 304.136C503.931 305.153 506.599 306.381 509.141 307.821L503.296 316.97C500.5 315.276 497.62 313.835 494.655 312.649C491.69 311.379 488.175 310.743 484.109 310.743C479.45 310.743 475.638 311.76 472.673 313.793C469.792 315.741 468.352 318.325 468.352 321.544C468.352 324.255 469.369 326.754 471.402 329.041C473.52 331.328 477.289 333.954 482.711 336.919C487.709 339.63 491.606 342.298 494.401 344.924C497.281 347.466 499.314 350.176 500.5 353.057C501.686 355.852 502.279 359.029 502.279 362.587C502.279 369.533 499.907 374.954 495.163 378.851C490.504 382.748 484.448 385.035 476.993 385.713L475.595 400.071H464.413L468.098 385.713C463.693 385.289 459.712 384.357 456.154 382.917C452.596 381.393 449.335 379.444 446.37 377.072L453.613 368.051C456.323 370.507 459.331 372.498 462.634 374.023C465.938 375.463 469.75 376.183 474.07 376.183C479.068 376.183 483.092 375.082 486.142 372.879C489.191 370.592 490.716 367.542 490.716 363.73C490.716 361.612 490.25 359.664 489.318 357.885C488.387 356.106 486.735 354.243 484.363 352.294C481.991 350.346 478.602 348.143 474.197 345.687C468.098 342.214 463.736 338.825 461.11 335.521C458.568 332.218 457.298 327.982 457.298 322.815C457.298 318.664 458.399 315.021 460.601 311.887C462.804 308.753 465.853 306.254 469.75 304.39C473.647 302.526 478.137 301.51 483.219 301.341L484.617 286.982H495.799L492.114 301.722ZM526.881 299.053H593.591L591.685 309.727H564.365L550.642 388H538.571L552.294 309.727H524.975L526.881 299.053ZM574.421 383.299L623.215 299.053H636.811L656.252 386.602L644.689 389.271L639.352 363.857H598.183L584.078 389.017L574.421 383.299ZM603.901 353.692H637.192L628.171 310.871L603.901 353.692ZM682.566 300.07C686.463 299.307 690.232 298.714 693.875 298.291C697.517 297.783 701.668 297.529 706.327 297.529C713.189 297.529 718.822 298.587 723.227 300.705C727.717 302.738 731.063 305.449 733.266 308.837C735.468 312.141 736.569 315.699 736.569 319.511C736.569 325.271 734.96 329.973 731.741 333.615C728.522 337.173 723.778 339.884 717.509 341.748C722.253 343.527 726.15 346.068 729.199 349.372C732.249 352.675 733.774 356.953 733.774 362.205C733.774 368.305 731.953 373.387 728.31 377.453C724.667 381.52 719.839 384.569 713.824 386.602C707.895 388.551 701.457 389.525 694.51 389.525C688.496 389.525 683.244 389.059 678.754 388.127C674.264 387.28 670.537 386.39 667.572 385.459L682.566 300.07ZM705.819 307.059C703.193 307.059 700.864 307.143 698.831 307.313C696.797 307.482 694.934 307.736 693.24 308.075L688.03 337.427H700.482C708.699 337.427 714.799 335.818 718.78 332.599C722.761 329.295 724.752 325.483 724.752 321.163C724.752 317.182 723.143 313.835 719.924 311.125C716.789 308.414 712.088 307.059 705.819 307.059ZM686.378 346.83L681.041 377.708C685.531 378.894 690.317 379.487 695.4 379.487C703.701 379.487 710.097 377.919 714.587 374.785C719.161 371.566 721.448 367.5 721.448 362.587C721.448 359.706 720.644 357.08 719.034 354.709C717.425 352.337 714.841 350.431 711.283 348.991C707.81 347.55 703.193 346.83 697.433 346.83H686.378ZM814.993 388.635C810.334 388.635 806.776 387.534 804.32 385.332C801.863 383.044 800.635 379.529 800.635 374.785V371.99C797.246 377.326 793.223 381.604 788.563 384.823C783.989 387.958 778.567 389.525 772.299 389.525C767.979 389.525 763.997 388.593 760.355 386.729C756.797 384.866 753.917 382.113 751.714 378.47C749.596 374.743 748.537 370.253 748.537 365.001C748.537 363.053 748.622 361.274 748.792 359.664C748.961 357.97 749.215 356.106 749.554 354.073L758.957 299.053H771.028L761.244 356.742C760.99 358.266 760.821 359.579 760.736 360.681C760.651 361.697 760.609 362.841 760.609 364.111C760.609 368.686 761.964 372.328 764.675 375.039C767.386 377.665 771.071 378.978 775.73 378.978C779.626 378.978 783.481 377.792 787.293 375.42C791.189 373.048 794.578 369.575 797.458 365.001C800.423 360.427 802.456 354.878 803.557 348.355L812.325 299.053H824.396L811.944 369.448C811.859 369.872 811.774 370.38 811.69 370.973C811.69 371.481 811.69 372.032 811.69 372.625C811.69 374.912 812.325 376.564 813.596 377.581C814.951 378.597 816.815 379.105 819.186 379.105L814.993 388.635Z" fill="black" fill-opacity="0.2"/>
<path d="M931.114 301.722C934.333 302.23 937.34 303.035 940.136 304.136C942.931 305.153 945.599 306.381 948.141 307.821L942.296 316.97C939.5 315.276 936.62 313.835 933.655 312.649C930.69 311.379 927.175 310.743 923.109 310.743C918.45 310.743 914.638 311.76 911.673 313.793C908.792 315.741 907.352 318.325 907.352 321.544C907.352 324.255 908.369 326.754 910.402 329.041C912.52 331.328 916.289 333.954 921.711 336.919C926.709 339.63 930.606 342.298 933.401 344.924C936.281 347.466 938.314 350.176 939.5 353.057C940.686 355.852 941.279 359.029 941.279 362.587C941.279 369.533 938.907 374.954 934.163 378.851C929.504 382.748 923.448 385.035 915.993 385.713L914.595 400.071H903.413L907.098 385.713C902.693 385.289 898.712 384.357 895.154 382.917C891.596 381.393 888.335 379.444 885.37 377.072L892.613 368.051C895.323 370.507 898.331 372.498 901.634 374.023C904.938 375.463 908.75 376.183 913.07 376.183C918.068 376.183 922.092 375.082 925.142 372.879C928.191 370.592 929.716 367.542 929.716 363.73C929.716 361.612 929.25 359.664 928.318 357.885C927.387 356.106 925.735 354.243 923.363 352.294C920.991 350.346 917.602 348.143 913.197 345.687C907.098 342.214 902.736 338.825 900.11 335.521C897.568 332.218 896.298 327.982 896.298 322.815C896.298 318.664 897.399 315.021 899.601 311.887C901.804 308.753 904.853 306.254 908.75 304.39C912.647 302.526 917.137 301.51 922.219 301.341L923.617 286.982H934.799L931.114 301.722ZM965.881 299.053H1032.59L1030.68 309.727H1003.37L989.642 388H977.571L991.294 309.727H963.975L965.881 299.053ZM1013.42 383.299L1062.21 299.053H1075.81L1095.25 386.602L1083.69 389.271L1078.35 363.857H1037.18L1023.08 389.017L1013.42 383.299ZM1042.9 353.692H1076.19L1067.17 310.871L1042.9 353.692ZM1121.57 300.07C1125.46 299.307 1129.23 298.714 1132.87 298.291C1136.52 297.783 1140.67 297.529 1145.33 297.529C1152.19 297.529 1157.82 298.587 1162.23 300.705C1166.72 302.738 1170.06 305.449 1172.27 308.837C1174.47 312.141 1175.57 315.699 1175.57 319.511C1175.57 325.271 1173.96 329.973 1170.74 333.615C1167.52 337.173 1162.78 339.884 1156.51 341.748C1161.25 343.527 1165.15 346.068 1168.2 349.372C1171.25 352.675 1172.77 356.953 1172.77 362.205C1172.77 368.305 1170.95 373.387 1167.31 377.453C1163.67 381.52 1158.84 384.569 1152.82 386.602C1146.89 388.551 1140.46 389.525 1133.51 389.525C1127.5 389.525 1122.24 389.059 1117.75 388.127C1113.26 387.28 1109.54 386.39 1106.57 385.459L1121.57 300.07ZM1144.82 307.059C1142.19 307.059 1139.86 307.143 1137.83 307.313C1135.8 307.482 1133.93 307.736 1132.24 308.075L1127.03 337.427H1139.48C1147.7 337.427 1153.8 335.818 1157.78 332.599C1161.76 329.295 1163.75 325.483 1163.75 321.163C1163.75 317.182 1162.14 313.835 1158.92 311.125C1155.79 308.414 1151.09 307.059 1144.82 307.059ZM1125.38 346.83L1120.04 377.708C1124.53 378.894 1129.32 379.487 1134.4 379.487C1142.7 379.487 1149.1 377.919 1153.59 374.785C1158.16 371.566 1160.45 367.5 1160.45 362.587C1160.45 359.706 1159.64 357.08 1158.03 354.709C1156.42 352.337 1153.84 350.431 1150.28 348.991C1146.81 347.55 1142.19 346.83 1136.43 346.83H1125.38ZM1253.99 388.635C1249.33 388.635 1245.78 387.534 1243.32 385.332C1240.86 383.044 1239.63 379.529 1239.63 374.785V371.99C1236.25 377.326 1232.22 381.604 1227.56 384.823C1222.99 387.958 1217.57 389.525 1211.3 389.525C1206.98 389.525 1203 388.593 1199.35 386.729C1195.8 384.866 1192.92 382.113 1190.71 378.47C1188.6 374.743 1187.54 370.253 1187.54 365.001C1187.54 363.053 1187.62 361.274 1187.79 359.664C1187.96 357.97 1188.22 356.106 1188.55 354.073L1197.96 299.053H1210.03L1200.24 356.742C1199.99 358.266 1199.82 359.579 1199.74 360.681C1199.65 361.697 1199.61 362.841 1199.61 364.111C1199.61 368.686 1200.96 372.328 1203.67 375.039C1206.39 377.665 1210.07 378.978 1214.73 378.978C1218.63 378.978 1222.48 377.792 1226.29 375.42C1230.19 373.048 1233.58 369.575 1236.46 365.001C1239.42 360.427 1241.46 354.878 1242.56 348.355L1251.32 299.053H1263.4L1250.94 369.448C1250.86 369.872 1250.77 370.38 1250.69 370.973C1250.69 371.481 1250.69 372.032 1250.69 372.625C1250.69 374.912 1251.32 376.564 1252.6 377.581C1253.95 378.597 1255.81 379.105 1258.19 379.105L1253.99 388.635Z" fill="black" fill-opacity="0.2"/>
<path d="M153.114 448.722C156.333 449.23 159.34 450.035 162.136 451.136C164.931 452.153 167.599 453.381 170.141 454.821L164.296 463.97C161.5 462.276 158.62 460.835 155.655 459.649C152.69 458.379 149.175 457.743 145.109 457.743C140.45 457.743 136.638 458.76 133.673 460.793C130.792 462.741 129.352 465.325 129.352 468.544C129.352 471.255 130.369 473.754 132.402 476.041C134.52 478.328 138.289 480.954 143.711 483.919C148.709 486.63 152.606 489.298 155.401 491.924C158.281 494.466 160.314 497.176 161.5 500.057C162.686 502.852 163.279 506.029 163.279 509.587C163.279 516.533 160.907 521.954 156.163 525.851C151.504 529.748 145.448 532.035 137.993 532.713L136.595 547.071H125.413L129.098 532.713C124.693 532.289 120.712 531.357 117.154 529.917C113.596 528.393 110.335 526.444 107.37 524.072L114.613 515.051C117.323 517.507 120.331 519.498 123.634 521.023C126.938 522.463 130.75 523.183 135.07 523.183C140.068 523.183 144.092 522.082 147.142 519.879C150.191 517.592 151.716 514.542 151.716 510.73C151.716 508.612 151.25 506.664 150.318 504.885C149.387 503.106 147.735 501.243 145.363 499.294C142.991 497.346 139.602 495.143 135.197 492.687C129.098 489.214 124.736 485.825 122.11 482.521C119.568 479.218 118.298 474.982 118.298 469.815C118.298 465.664 119.399 462.021 121.601 458.887C123.804 455.753 126.853 453.254 130.75 451.39C134.647 449.526 139.137 448.51 144.219 448.341L145.617 433.982H156.799L153.114 448.722ZM187.881 446.053H254.591L252.685 456.727H225.365L211.642 535H199.571L213.294 456.727H185.975L187.881 446.053ZM235.421 530.299L284.215 446.053H297.811L317.252 533.602L305.689 536.271L300.352 510.857H259.183L245.078 536.017L235.421 530.299ZM264.901 500.692H298.192L289.171 457.871L264.901 500.692ZM343.566 447.07C347.463 446.307 351.232 445.714 354.875 445.291C358.517 444.783 362.668 444.529 367.327 444.529C374.189 444.529 379.822 445.587 384.227 447.705C388.717 449.738 392.063 452.449 394.266 455.837C396.468 459.141 397.569 462.699 397.569 466.511C397.569 472.271 395.96 476.973 392.741 480.615C389.522 484.173 384.778 486.884 378.509 488.748C383.253 490.527 387.15 493.068 390.199 496.372C393.249 499.675 394.774 503.953 394.774 509.205C394.774 515.305 392.953 520.387 389.31 524.453C385.667 528.52 380.839 531.569 374.824 533.602C368.895 535.551 362.457 536.525 355.51 536.525C349.496 536.525 344.244 536.059 339.754 535.127C335.264 534.28 331.537 533.39 328.572 532.459L343.566 447.07ZM366.819 454.059C364.193 454.059 361.864 454.143 359.831 454.313C357.797 454.482 355.934 454.736 354.24 455.075L349.03 484.427H361.482C369.699 484.427 375.799 482.818 379.78 479.599C383.761 476.295 385.752 472.483 385.752 468.163C385.752 464.182 384.143 460.835 380.924 458.125C377.789 455.414 373.088 454.059 366.819 454.059ZM347.378 493.83L342.041 524.708C346.531 525.894 351.317 526.487 356.4 526.487C364.701 526.487 371.097 524.919 375.587 521.785C380.161 518.566 382.448 514.5 382.448 509.587C382.448 506.706 381.644 504.08 380.034 501.709C378.425 499.337 375.841 497.431 372.283 495.991C368.81 494.55 364.193 493.83 358.433 493.83H347.378ZM475.993 535.635C471.334 535.635 467.776 534.534 465.32 532.332C462.863 530.044 461.635 526.529 461.635 521.785V518.99C458.246 524.326 454.223 528.604 449.563 531.823C444.989 534.958 439.567 536.525 433.299 536.525C428.979 536.525 424.997 535.593 421.355 533.729C417.797 531.866 414.917 529.113 412.714 525.47C410.596 521.743 409.537 517.253 409.537 512.001C409.537 510.053 409.622 508.274 409.792 506.664C409.961 504.97 410.215 503.106 410.554 501.073L419.957 446.053H432.028L422.244 503.742C421.99 505.266 421.821 506.579 421.736 507.681C421.651 508.697 421.609 509.841 421.609 511.111C421.609 515.686 422.964 519.328 425.675 522.039C428.386 524.665 432.071 525.978 436.73 525.978C440.626 525.978 444.481 524.792 448.293 522.42C452.189 520.048 455.578 516.575 458.458 512.001C461.423 507.427 463.456 501.878 464.557 495.355L473.325 446.053H485.396L472.944 516.448C472.859 516.872 472.774 517.38 472.69 517.973C472.69 518.481 472.69 519.032 472.69 519.625C472.69 521.912 473.325 523.564 474.596 524.581C475.951 525.597 477.815 526.105 480.186 526.105L475.993 535.635Z" fill="black" fill-opacity="0.2"/>
<path d="M592.114 448.722C595.333 449.23 598.34 450.035 601.136 451.136C603.931 452.153 606.599 453.381 609.141 454.821L603.296 463.97C600.5 462.276 597.62 460.835 594.655 459.649C591.69 458.379 588.175 457.743 584.109 457.743C579.45 457.743 575.638 458.76 572.673 460.793C569.792 462.741 568.352 465.325 568.352 468.544C568.352 471.255 569.369 473.754 571.402 476.041C573.52 478.328 577.289 480.954 582.711 483.919C587.709 486.63 591.606 489.298 594.401 491.924C597.281 494.466 599.314 497.176 600.5 500.057C601.686 502.852 602.279 506.029 602.279 509.587C602.279 516.533 599.907 521.954 595.163 525.851C590.504 529.748 584.448 532.035 576.993 532.713L575.595 547.071H564.413L568.098 532.713C563.693 532.289 559.712 531.357 556.154 529.917C552.596 528.393 549.335 526.444 546.37 524.072L553.613 515.051C556.323 517.507 559.331 519.498 562.634 521.023C565.938 522.463 569.75 523.183 574.07 523.183C579.068 523.183 583.092 522.082 586.142 519.879C589.191 517.592 590.716 514.542 590.716 510.73C590.716 508.612 590.25 506.664 589.318 504.885C588.387 503.106 586.735 501.243 584.363 499.294C581.991 497.346 578.602 495.143 574.197 492.687C568.098 489.214 563.736 485.825 561.11 482.521C558.568 479.218 557.298 474.982 557.298 469.815C557.298 465.664 558.399 462.021 560.601 458.887C562.804 455.753 565.853 453.254 569.75 451.39C573.647 449.526 578.137 448.51 583.219 448.341L584.617 433.982H595.799L592.114 448.722ZM626.881 446.053H693.591L691.685 456.727H664.365L650.642 535H638.571L652.294 456.727H624.975L626.881 446.053ZM674.421 530.299L723.215 446.053H736.811L756.252 533.602L744.689 536.271L739.352 510.857H698.183L684.078 536.017L674.421 530.299ZM703.901 500.692H737.192L728.171 457.871L703.901 500.692ZM782.566 447.07C786.463 446.307 790.232 445.714 793.875 445.291C797.517 444.783 801.668 444.529 806.327 444.529C813.189 444.529 818.822 445.587 823.227 447.705C827.717 449.738 831.063 452.449 833.266 455.837C835.468 459.141 836.569 462.699 836.569 466.511C836.569 472.271 834.96 476.973 831.741 480.615C828.522 484.173 823.778 486.884 817.509 488.748C822.253 490.527 826.15 493.068 829.199 496.372C832.249 499.675 833.774 503.953 833.774 509.205C833.774 515.305 831.953 520.387 828.31 524.453C824.667 528.52 819.839 531.569 813.824 533.602C807.895 535.551 801.457 536.525 794.51 536.525C788.496 536.525 783.244 536.059 778.754 535.127C774.264 534.28 770.537 533.39 767.572 532.459L782.566 447.07ZM805.819 454.059C803.193 454.059 800.864 454.143 798.831 454.313C796.797 454.482 794.934 454.736 793.24 455.075L788.03 484.427H800.482C808.699 484.427 814.799 482.818 818.78 479.599C822.761 476.295 824.752 472.483 824.752 468.163C824.752 464.182 823.143 460.835 819.924 458.125C816.789 455.414 812.088 454.059 805.819 454.059ZM786.378 493.83L781.041 524.708C785.531 525.894 790.317 526.487 795.4 526.487C803.701 526.487 810.097 524.919 814.587 521.785C819.161 518.566 821.448 514.5 821.448 509.587C821.448 506.706 820.644 504.08 819.034 501.709C817.425 499.337 814.841 497.431 811.283 495.991C807.81 494.55 803.193 493.83 797.433 493.83H786.378ZM914.993 535.635C910.334 535.635 906.776 534.534 904.32 532.332C901.863 530.044 900.635 526.529 900.635 521.785V518.99C897.246 524.326 893.223 528.604 888.563 531.823C883.989 534.958 878.567 536.525 872.299 536.525C867.979 536.525 863.997 535.593 860.355 533.729C856.797 531.866 853.917 529.113 851.714 525.47C849.596 521.743 848.537 517.253 848.537 512.001C848.537 510.053 848.622 508.274 848.792 506.664C848.961 504.97 849.215 503.106 849.554 501.073L858.957 446.053H871.028L861.244 503.742C860.99 505.266 860.821 506.579 860.736 507.681C860.651 508.697 860.609 509.841 860.609 511.111C860.609 515.686 861.964 519.328 864.675 522.039C867.386 524.665 871.071 525.978 875.73 525.978C879.626 525.978 883.481 524.792 887.293 522.42C891.189 520.048 894.578 516.575 897.458 512.001C900.423 507.427 902.456 501.878 903.557 495.355L912.325 446.053H924.396L911.944 516.448C911.859 516.872 911.774 517.38 911.69 517.973C911.69 518.481 911.69 519.032 911.69 519.625C911.69 521.912 912.325 523.564 913.596 524.581C914.951 525.597 916.815 526.105 919.186 526.105L914.993 535.635Z" fill="black" fill-opacity="0.2"/>
<path d="M53.1139 595.722C56.3329 596.23 59.3401 597.035 62.1356 598.136C64.9311 599.153 67.5995 600.381 70.1408 601.821L64.2957 610.97C61.5003 609.276 58.6201 607.835 55.6552 606.649C52.6903 605.379 49.1748 604.743 45.1087 604.743C40.4496 604.743 36.6376 605.76 33.6727 607.793C30.7925 609.741 29.3524 612.325 29.3524 615.544C29.3524 618.255 30.3689 620.754 32.402 623.041C34.5198 625.328 38.2894 627.954 43.7109 630.919C48.7089 633.63 52.6056 636.298 55.4011 638.924C58.2813 641.466 60.3143 644.176 61.5003 647.057C62.6862 649.852 63.2792 653.029 63.2792 656.587C63.2792 663.533 60.9073 668.954 56.1635 672.851C51.5044 676.748 45.4475 679.035 37.9929 679.713L36.5952 694.071H25.4133L29.0983 679.713C24.6933 679.289 20.7119 678.357 17.154 676.917C13.5961 675.393 10.3348 673.444 7.36987 671.072L14.6127 662.051C17.3234 664.507 20.3307 666.498 23.6344 668.023C26.9381 669.463 30.7501 670.183 35.0704 670.183C40.0684 670.183 44.0921 669.082 47.1417 666.879C50.1913 664.592 51.7161 661.542 51.7161 657.73C51.7161 655.612 51.2502 653.664 50.3184 651.885C49.3866 650.106 47.7347 648.243 45.3628 646.294C42.9909 644.346 39.6024 642.143 35.1975 639.687C29.0983 636.214 24.7356 632.825 22.1096 629.521C19.5683 626.218 18.2976 621.982 18.2976 616.815C18.2976 612.664 19.3988 609.021 21.6013 605.887C23.8038 602.753 26.8534 600.254 30.7501 598.39C34.6468 596.526 39.1365 595.51 44.2192 595.341L45.6169 580.982H56.7988L53.1139 595.722ZM87.8805 593.053H154.591L152.685 603.727H125.365L111.642 682H99.5706L113.294 603.727H85.9745L87.8805 593.053ZM135.421 677.299L184.215 593.053H197.811L217.252 680.602L205.689 683.271L200.352 657.857H159.183L145.078 683.017L135.421 677.299ZM164.901 647.692H198.192L189.171 604.871L164.901 647.692ZM243.566 594.07C247.463 593.307 251.232 592.714 254.875 592.291C258.517 591.783 262.668 591.529 267.327 591.529C274.189 591.529 279.822 592.587 284.227 594.705C288.717 596.738 292.063 599.449 294.266 602.837C296.468 606.141 297.569 609.699 297.569 613.511C297.569 619.271 295.96 623.973 292.741 627.615C289.522 631.173 284.778 633.884 278.509 635.748C283.253 637.527 287.15 640.068 290.199 643.372C293.249 646.675 294.774 650.953 294.774 656.205C294.774 662.305 292.953 667.387 289.31 671.453C285.667 675.52 280.839 678.569 274.824 680.602C268.895 682.551 262.457 683.525 255.51 683.525C249.496 683.525 244.244 683.059 239.754 682.127C235.264 681.28 231.537 680.39 228.572 679.459L243.566 594.07ZM266.819 601.059C264.193 601.059 261.864 601.143 259.831 601.313C257.797 601.482 255.934 601.736 254.24 602.075L249.03 631.427H261.482C269.699 631.427 275.799 629.818 279.78 626.599C283.761 623.295 285.752 619.483 285.752 615.163C285.752 611.182 284.143 607.835 280.924 605.125C277.789 602.414 273.088 601.059 266.819 601.059ZM247.378 640.83L242.041 671.708C246.531 672.894 251.317 673.487 256.4 673.487C264.701 673.487 271.097 671.919 275.587 668.785C280.161 665.566 282.448 661.5 282.448 656.587C282.448 653.706 281.644 651.08 280.034 648.709C278.425 646.337 275.841 644.431 272.283 642.991C268.81 641.55 264.193 640.83 258.433 640.83H247.378ZM375.993 682.635C371.334 682.635 367.776 681.534 365.32 679.332C362.863 677.044 361.635 673.529 361.635 668.785V665.99C358.246 671.326 354.223 675.604 349.563 678.823C344.989 681.958 339.567 683.525 333.299 683.525C328.979 683.525 324.997 682.593 321.355 680.729C317.797 678.866 314.917 676.113 312.714 672.47C310.596 668.743 309.537 664.253 309.537 659.001C309.537 657.053 309.622 655.274 309.792 653.664C309.961 651.97 310.215 650.106 310.554 648.073L319.957 593.053H332.028L322.244 650.742C321.99 652.266 321.821 653.579 321.736 654.681C321.651 655.697 321.609 656.841 321.609 658.111C321.609 662.686 322.964 666.328 325.675 669.039C328.386 671.665 332.071 672.978 336.73 672.978C340.626 672.978 344.481 671.792 348.293 669.42C352.189 667.048 355.578 663.575 358.458 659.001C361.423 654.427 363.456 648.878 364.557 642.355L373.325 593.053H385.396L372.944 663.448C372.859 663.872 372.774 664.38 372.69 664.973C372.69 665.481 372.69 666.032 372.69 666.625C372.69 668.912 373.325 670.564 374.596 671.581C375.951 672.597 377.815 673.105 380.186 673.105L375.993 682.635Z" fill="black" fill-opacity="0.2"/>
<path d="M492.114 595.722C495.333 596.23 498.34 597.035 501.136 598.136C503.931 599.153 506.599 600.381 509.141 601.821L503.296 610.97C500.5 609.276 497.62 607.835 494.655 606.649C491.69 605.379 488.175 604.743 484.109 604.743C479.45 604.743 475.638 605.76 472.673 607.793C469.792 609.741 468.352 612.325 468.352 615.544C468.352 618.255 469.369 620.754 471.402 623.041C473.52 625.328 477.289 627.954 482.711 630.919C487.709 633.63 491.606 636.298 494.401 638.924C497.281 641.466 499.314 644.176 500.5 647.057C501.686 649.852 502.279 653.029 502.279 656.587C502.279 663.533 499.907 668.954 495.163 672.851C490.504 676.748 484.448 679.035 476.993 679.713L475.595 694.071H464.413L468.098 679.713C463.693 679.289 459.712 678.357 456.154 676.917C452.596 675.393 449.335 673.444 446.37 671.072L453.613 662.051C456.323 664.507 459.331 666.498 462.634 668.023C465.938 669.463 469.75 670.183 474.07 670.183C479.068 670.183 483.092 669.082 486.142 666.879C489.191 664.592 490.716 661.542 490.716 657.73C490.716 655.612 490.25 653.664 489.318 651.885C488.387 650.106 486.735 648.243 484.363 646.294C481.991 644.346 478.602 642.143 474.197 639.687C468.098 636.214 463.736 632.825 461.11 629.521C458.568 626.218 457.298 621.982 457.298 616.815C457.298 612.664 458.399 609.021 460.601 605.887C462.804 602.753 465.853 600.254 469.75 598.39C473.647 596.526 478.137 595.51 483.219 595.341L484.617 580.982H495.799L492.114 595.722ZM526.881 593.053H593.591L591.685 603.727H564.365L550.642 682H538.571L552.294 603.727H524.975L526.881 593.053ZM574.421 677.299L623.215 593.053H636.811L656.252 680.602L644.689 683.271L639.352 657.857H598.183L584.078 683.017L574.421 677.299ZM603.901 647.692H637.192L628.171 604.871L603.901 647.692ZM682.566 594.07C686.463 593.307 690.232 592.714 693.875 592.291C697.517 591.783 701.668 591.529 706.327 591.529C713.189 591.529 718.822 592.587 723.227 594.705C727.717 596.738 731.063 599.449 733.266 602.837C735.468 606.141 736.569 609.699 736.569 613.511C736.569 619.271 734.96 623.973 731.741 627.615C728.522 631.173 723.778 633.884 717.509 635.748C722.253 637.527 726.15 640.068 729.199 643.372C732.249 646.675 733.774 650.953 733.774 656.205C733.774 662.305 731.953 667.387 728.31 671.453C724.667 675.52 719.839 678.569 713.824 680.602C707.895 682.551 701.457 683.525 694.51 683.525C688.496 683.525 683.244 683.059 678.754 682.127C674.264 681.28 670.537 680.39 667.572 679.459L682.566 594.07ZM705.819 601.059C703.193 601.059 700.864 601.143 698.831 601.313C696.797 601.482 694.934 601.736 693.24 602.075L688.03 631.427H700.482C708.699 631.427 714.799 629.818 718.78 626.599C722.761 623.295 724.752 619.483 724.752 615.163C724.752 611.182 723.143 607.835 719.924 605.125C716.789 602.414 712.088 601.059 705.819 601.059ZM686.378 640.83L681.041 671.708C685.531 672.894 690.317 673.487 695.4 673.487C703.701 673.487 710.097 671.919 714.587 668.785C719.161 665.566 721.448 661.5 721.448 656.587C721.448 653.706 720.644 651.08 719.034 648.709C717.425 646.337 714.841 644.431 711.283 642.991C707.81 641.55 703.193 640.83 697.433 640.83H686.378ZM814.993 682.635C810.334 682.635 806.776 681.534 804.32 679.332C801.863 677.044 800.635 673.529 800.635 668.785V665.99C797.246 671.326 793.223 675.604 788.563 678.823C783.989 681.958 778.567 683.525 772.299 683.525C767.979 683.525 763.997 682.593 760.355 680.729C756.797 678.866 753.917 676.113 751.714 672.47C749.596 668.743 748.537 664.253 748.537 659.001C748.537 657.053 748.622 655.274 748.792 653.664C748.961 651.97 749.215 650.106 749.554 648.073L758.957 593.053H771.028L761.244 650.742C760.99 652.266 760.821 653.579 760.736 654.681C760.651 655.697 760.609 656.841 760.609 658.111C760.609 662.686 761.964 666.328 764.675 669.039C767.386 671.665 771.071 672.978 775.73 672.978C779.626 672.978 783.481 671.792 787.293 669.42C791.189 667.048 794.578 663.575 797.458 659.001C800.423 654.427 802.456 648.878 803.557 642.355L812.325 593.053H824.396L811.944 663.448C811.859 663.872 811.774 664.38 811.69 664.973C811.69 665.481 811.69 666.032 811.69 666.625C811.69 668.912 812.325 670.564 813.596 671.581C814.951 672.597 816.815 673.105 819.186 673.105L814.993 682.635Z" fill="black" fill-opacity="0.2"/>
<path d="M931.114 595.722C934.333 596.23 937.34 597.035 940.136 598.136C942.931 599.153 945.599 600.381 948.141 601.821L942.296 610.97C939.5 609.276 936.62 607.835 933.655 606.649C930.69 605.379 927.175 604.743 923.109 604.743C918.45 604.743 914.638 605.76 911.673 607.793C908.792 609.741 907.352 612.325 907.352 615.544C907.352 618.255 908.369 620.754 910.402 623.041C912.52 625.328 916.289 627.954 921.711 630.919C926.709 633.63 930.606 636.298 933.401 638.924C936.281 641.466 938.314 644.176 939.5 647.057C940.686 649.852 941.279 653.029 941.279 656.587C941.279 663.533 938.907 668.954 934.163 672.851C929.504 676.748 923.448 679.035 915.993 679.713L914.595 694.071H903.413L907.098 679.713C902.693 679.289 898.712 678.357 895.154 676.917C891.596 675.393 888.335 673.444 885.37 671.072L892.613 662.051C895.323 664.507 898.331 666.498 901.634 668.023C904.938 669.463 908.75 670.183 913.07 670.183C918.068 670.183 922.092 669.082 925.142 666.879C928.191 664.592 929.716 661.542 929.716 657.73C929.716 655.612 929.25 653.664 928.318 651.885C927.387 650.106 925.735 648.243 923.363 646.294C920.991 644.346 917.602 642.143 913.197 639.687C907.098 636.214 902.736 632.825 900.11 629.521C897.568 626.218 896.298 621.982 896.298 616.815C896.298 612.664 897.399 609.021 899.601 605.887C901.804 602.753 904.853 600.254 908.75 598.39C912.647 596.526 917.137 595.51 922.219 595.341L923.617 580.982H934.799L931.114 595.722ZM965.881 593.053H1032.59L1030.68 603.727H1003.37L989.642 682H977.571L991.294 603.727H963.975L965.881 593.053ZM1013.42 677.299L1062.21 593.053H1075.81L1095.25 680.602L1083.69 683.271L1078.35 657.857H1037.18L1023.08 683.017L1013.42 677.299ZM1042.9 647.692H1076.19L1067.17 604.871L1042.9 647.692ZM1121.57 594.07C1125.46 593.307 1129.23 592.714 1132.87 592.291C1136.52 591.783 1140.67 591.529 1145.33 591.529C1152.19 591.529 1157.82 592.587 1162.23 594.705C1166.72 596.738 1170.06 599.449 1172.27 602.837C1174.47 606.141 1175.57 609.699 1175.57 613.511C1175.57 619.271 1173.96 623.973 1170.74 627.615C1167.52 631.173 1162.78 633.884 1156.51 635.748C1161.25 637.527 1165.15 640.068 1168.2 643.372C1171.25 646.675 1172.77 650.953 1172.77 656.205C1172.77 662.305 1170.95 667.387 1167.31 671.453C1163.67 675.52 1158.84 678.569 1152.82 680.602C1146.89 682.551 1140.46 683.525 1133.51 683.525C1127.5 683.525 1122.24 683.059 1117.75 682.127C1113.26 681.28 1109.54 680.39 1106.57 679.459L1121.57 594.07ZM1144.82 601.059C1142.19 601.059 1139.86 601.143 1137.83 601.313C1135.8 601.482 1133.93 601.736 1132.24 602.075L1127.03 631.427H1139.48C1147.7 631.427 1153.8 629.818 1157.78 626.599C1161.76 623.295 1163.75 619.483 1163.75 615.163C1163.75 611.182 1162.14 607.835 1158.92 605.125C1155.79 602.414 1151.09 601.059 1144.82 601.059ZM1125.38 640.83L1120.04 671.708C1124.53 672.894 1129.32 673.487 1134.4 673.487C1142.7 673.487 1149.1 671.919 1153.59 668.785C1158.16 665.566 1160.45 661.5 1160.45 656.587C1160.45 653.706 1159.64 651.08 1158.03 648.709C1156.42 646.337 1153.84 644.431 1150.28 642.991C1146.81 641.55 1142.19 640.83 1136.43 640.83H1125.38ZM1253.99 682.635C1249.33 682.635 1245.78 681.534 1243.32 679.332C1240.86 677.044 1239.63 673.529 1239.63 668.785V665.99C1236.25 671.326 1232.22 675.604 1227.56 678.823C1222.99 681.958 1217.57 683.525 1211.3 683.525C1206.98 683.525 1203 682.593 1199.35 680.729C1195.8 678.866 1192.92 676.113 1190.71 672.47C1188.6 668.743 1187.54 664.253 1187.54 659.001C1187.54 657.053 1187.62 655.274 1187.79 653.664C1187.96 651.97 1188.22 650.106 1188.55 648.073L1197.96 593.053H1210.03L1200.24 650.742C1199.99 652.266 1199.82 653.579 1199.74 654.681C1199.65 655.697 1199.61 656.841 1199.61 658.111C1199.61 662.686 1200.96 666.328 1203.67 669.039C1206.39 671.665 1210.07 672.978 1214.73 672.978C1218.63 672.978 1222.48 671.792 1226.29 669.42C1230.19 667.048 1233.58 663.575 1236.46 659.001C1239.42 654.427 1241.46 648.878 1242.56 642.355L1251.32 593.053H1263.4L1250.94 663.448C1250.86 663.872 1250.77 664.38 1250.69 664.973C1250.69 665.481 1250.69 666.032 1250.69 666.625C1250.69 668.912 1251.32 670.564 1252.6 671.581C1253.95 672.597 1255.81 673.105 1258.19 673.105L1253.99 682.635Z" fill="black" fill-opacity="0.2"/>
<path d="M153.114 742.722C156.333 743.23 159.34 744.035 162.136 745.136C164.931 746.153 167.599 747.381 170.141 748.821L164.296 757.97C161.5 756.276 158.62 754.835 155.655 753.649C152.69 752.379 149.175 751.743 145.109 751.743C140.45 751.743 136.638 752.76 133.673 754.793C130.792 756.741 129.352 759.325 129.352 762.544C129.352 765.255 130.369 767.754 132.402 770.041C134.52 772.328 138.289 774.954 143.711 777.919C148.709 780.63 152.606 783.298 155.401 785.924C158.281 788.466 160.314 791.176 161.5 794.057C162.686 796.852 163.279 800.029 163.279 803.587C163.279 810.533 160.907 815.954 156.163 819.851C151.504 823.748 145.448 826.035 137.993 826.713L136.595 841.071H125.413L129.098 826.713C124.693 826.289 120.712 825.357 117.154 823.917C113.596 822.393 110.335 820.444 107.37 818.072L114.613 809.051C117.323 811.507 120.331 813.498 123.634 815.023C126.938 816.463 130.75 817.183 135.07 817.183C140.068 817.183 144.092 816.082 147.142 813.879C150.191 811.592 151.716 808.542 151.716 804.73C151.716 802.612 151.25 800.664 150.318 798.885C149.387 797.106 147.735 795.243 145.363 793.294C142.991 791.346 139.602 789.143 135.197 786.687C129.098 783.214 124.736 779.825 122.11 776.521C119.568 773.218 118.298 768.982 118.298 763.815C118.298 759.664 119.399 756.021 121.601 752.887C123.804 749.753 126.853 747.254 130.75 745.39C134.647 743.526 139.137 742.51 144.219 742.341L145.617 727.982H156.799L153.114 742.722ZM187.881 740.053H254.591L252.685 750.727H225.365L211.642 829H199.571L213.294 750.727H185.975L187.881 740.053ZM235.421 824.299L284.215 740.053H297.811L317.252 827.602L305.689 830.271L300.352 804.857H259.183L245.078 830.017L235.421 824.299ZM264.901 794.692H298.192L289.171 751.871L264.901 794.692ZM343.566 741.07C347.463 740.307 351.232 739.714 354.875 739.291C358.517 738.783 362.668 738.529 367.327 738.529C374.189 738.529 379.822 739.587 384.227 741.705C388.717 743.738 392.063 746.449 394.266 749.837C396.468 753.141 397.569 756.699 397.569 760.511C397.569 766.271 395.96 770.973 392.741 774.615C389.522 778.173 384.778 780.884 378.509 782.748C383.253 784.527 387.15 787.068 390.199 790.372C393.249 793.675 394.774 797.953 394.774 803.205C394.774 809.305 392.953 814.387 389.31 818.453C385.667 822.52 380.839 825.569 374.824 827.602C368.895 829.551 362.457 830.525 355.51 830.525C349.496 830.525 344.244 830.059 339.754 829.127C335.264 828.28 331.537 827.39 328.572 826.459L343.566 741.07ZM366.819 748.059C364.193 748.059 361.864 748.143 359.831 748.313C357.797 748.482 355.934 748.736 354.24 749.075L349.03 778.427H361.482C369.699 778.427 375.799 776.818 379.78 773.599C383.761 770.295 385.752 766.483 385.752 762.163C385.752 758.182 384.143 754.835 380.924 752.125C377.789 749.414 373.088 748.059 366.819 748.059ZM347.378 787.83L342.041 818.708C346.531 819.894 351.317 820.487 356.4 820.487C364.701 820.487 371.097 818.919 375.587 815.785C380.161 812.566 382.448 808.5 382.448 803.587C382.448 800.706 381.644 798.08 380.034 795.709C378.425 793.337 375.841 791.431 372.283 789.991C368.81 788.55 364.193 787.83 358.433 787.83H347.378ZM475.993 829.635C471.334 829.635 467.776 828.534 465.32 826.332C462.863 824.044 461.635 820.529 461.635 815.785V812.99C458.246 818.326 454.223 822.604 449.563 825.823C444.989 828.958 439.567 830.525 433.299 830.525C428.979 830.525 424.997 829.593 421.355 827.729C417.797 825.866 414.917 823.113 412.714 819.47C410.596 815.743 409.537 811.253 409.537 806.001C409.537 804.053 409.622 802.274 409.792 800.664C409.961 798.97 410.215 797.106 410.554 795.073L419.957 740.053H432.028L422.244 797.742C421.99 799.266 421.821 800.579 421.736 801.681C421.651 802.697 421.609 803.841 421.609 805.111C421.609 809.686 422.964 813.328 425.675 816.039C428.386 818.665 432.071 819.978 436.73 819.978C440.626 819.978 444.481 818.792 448.293 816.42C452.189 814.048 455.578 810.575 458.458 806.001C461.423 801.427 463.456 795.878 464.557 789.355L473.325 740.053H485.396L472.944 810.448C472.859 810.872 472.774 811.38 472.69 811.973C472.69 812.481 472.69 813.032 472.69 813.625C472.69 815.912 473.325 817.564 474.596 818.581C475.951 819.597 477.815 820.105 480.186 820.105L475.993 829.635Z" fill="black" fill-opacity="0.2"/>
<path d="M592.114 742.722C595.333 743.23 598.34 744.035 601.136 745.136C603.931 746.153 606.599 747.381 609.141 748.821L603.296 757.97C600.5 756.276 597.62 754.835 594.655 753.649C591.69 752.379 588.175 751.743 584.109 751.743C579.45 751.743 575.638 752.76 572.673 754.793C569.792 756.741 568.352 759.325 568.352 762.544C568.352 765.255 569.369 767.754 571.402 770.041C573.52 772.328 577.289 774.954 582.711 777.919C587.709 780.63 591.606 783.298 594.401 785.924C597.281 788.466 599.314 791.176 600.5 794.057C601.686 796.852 602.279 800.029 602.279 803.587C602.279 810.533 599.907 815.954 595.163 819.851C590.504 823.748 584.448 826.035 576.993 826.713L575.595 841.071H564.413L568.098 826.713C563.693 826.289 559.712 825.357 556.154 823.917C552.596 822.393 549.335 820.444 546.37 818.072L553.613 809.051C556.323 811.507 559.331 813.498 562.634 815.023C565.938 816.463 569.75 817.183 574.07 817.183C579.068 817.183 583.092 816.082 586.142 813.879C589.191 811.592 590.716 808.542 590.716 804.73C590.716 802.612 590.25 800.664 589.318 798.885C588.387 797.106 586.735 795.243 584.363 793.294C581.991 791.346 578.602 789.143 574.197 786.687C568.098 783.214 563.736 779.825 561.11 776.521C558.568 773.218 557.298 768.982 557.298 763.815C557.298 759.664 558.399 756.021 560.601 752.887C562.804 749.753 565.853 747.254 569.75 745.39C573.647 743.526 578.137 742.51 583.219 742.341L584.617 727.982H595.799L592.114 742.722ZM626.881 740.053H693.591L691.685 750.727H664.365L650.642 829H638.571L652.294 750.727H624.975L626.881 740.053ZM674.421 824.299L723.215 740.053H736.811L756.252 827.602L744.689 830.271L739.352 804.857H698.183L684.078 830.017L674.421 824.299ZM703.901 794.692H737.192L728.171 751.871L703.901 794.692ZM782.566 741.07C786.463 740.307 790.232 739.714 793.875 739.291C797.517 738.783 801.668 738.529 806.327 738.529C813.189 738.529 818.822 739.587 823.227 741.705C827.717 743.738 831.063 746.449 833.266 749.837C835.468 753.141 836.569 756.699 836.569 760.511C836.569 766.271 834.96 770.973 831.741 774.615C828.522 778.173 823.778 780.884 817.509 782.748C822.253 784.527 826.15 787.068 829.199 790.372C832.249 793.675 833.774 797.953 833.774 803.205C833.774 809.305 831.953 814.387 828.31 818.453C824.667 822.52 819.839 825.569 813.824 827.602C807.895 829.551 801.457 830.525 794.51 830.525C788.496 830.525 783.244 830.059 778.754 829.127C774.264 828.28 770.537 827.39 767.572 826.459L782.566 741.07ZM805.819 748.059C803.193 748.059 800.864 748.143 798.831 748.313C796.797 748.482 794.934 748.736 793.24 749.075L788.03 778.427H800.482C808.699 778.427 814.799 776.818 818.78 773.599C822.761 770.295 824.752 766.483 824.752 762.163C824.752 758.182 823.143 754.835 819.924 752.125C816.789 749.414 812.088 748.059 805.819 748.059ZM786.378 787.83L781.041 818.708C785.531 819.894 790.317 820.487 795.4 820.487C803.701 820.487 810.097 818.919 814.587 815.785C819.161 812.566 821.448 808.5 821.448 803.587C821.448 800.706 820.644 798.08 819.034 795.709C817.425 793.337 814.841 791.431 811.283 789.991C807.81 788.55 803.193 787.83 797.433 787.83H786.378ZM914.993 829.635C910.334 829.635 906.776 828.534 904.32 826.332C901.863 824.044 900.635 820.529 900.635 815.785V812.99C897.246 818.326 893.223 822.604 888.563 825.823C883.989 828.958 878.567 830.525 872.299 830.525C867.979 830.525 863.997 829.593 860.355 827.729C856.797 825.866 853.917 823.113 851.714 819.47C849.596 815.743 848.537 811.253 848.537 806.001C848.537 804.053 848.622 802.274 848.792 800.664C848.961 798.97 849.215 797.106 849.554 795.073L858.957 740.053H871.028L861.244 797.742C860.99 799.266 860.821 800.579 860.736 801.681C860.651 802.697 860.609 803.841 860.609 805.111C860.609 809.686 861.964 813.328 864.675 816.039C867.386 818.665 871.071 819.978 875.73 819.978C879.626 819.978 883.481 818.792 887.293 816.42C891.189 814.048 894.578 810.575 897.458 806.001C900.423 801.427 902.456 795.878 903.557 789.355L912.325 740.053H924.396L911.944 810.448C911.859 810.872 911.774 811.38 911.69 811.973C911.69 812.481 911.69 813.032 911.69 813.625C911.69 815.912 912.325 817.564 913.596 818.581C914.951 819.597 916.815 820.105 919.186 820.105L914.993 829.635Z" fill="black" fill-opacity="0.2"/>
<path d="M53.1139 889.722C56.3329 890.23 59.3401 891.035 62.1356 892.136C64.9311 893.153 67.5995 894.381 70.1408 895.821L64.2957 904.97C61.5003 903.276 58.6201 901.835 55.6552 900.649C52.6903 899.379 49.1748 898.743 45.1087 898.743C40.4496 898.743 36.6376 899.76 33.6727 901.793C30.7925 903.741 29.3524 906.325 29.3524 909.544C29.3524 912.255 30.3689 914.754 32.402 917.041C34.5198 919.328 38.2894 921.954 43.7109 924.919C48.7089 927.63 52.6056 930.298 55.4011 932.924C58.2813 935.466 60.3143 938.176 61.5003 941.057C62.6862 943.852 63.2792 947.029 63.2792 950.587C63.2792 957.533 60.9073 962.954 56.1635 966.851C51.5044 970.748 45.4475 973.035 37.9929 973.713L36.5952 988.071H25.4133L29.0983 973.713C24.6933 973.289 20.7119 972.357 17.154 970.917C13.5961 969.393 10.3348 967.444 7.36987 965.072L14.6127 956.051C17.3234 958.507 20.3307 960.498 23.6344 962.023C26.9381 963.463 30.7501 964.183 35.0704 964.183C40.0684 964.183 44.0921 963.082 47.1417 960.879C50.1913 958.592 51.7161 955.542 51.7161 951.73C51.7161 949.612 51.2502 947.664 50.3184 945.885C49.3866 944.106 47.7347 942.243 45.3628 940.294C42.9909 938.346 39.6024 936.143 35.1975 933.687C29.0983 930.214 24.7356 926.825 22.1096 923.521C19.5683 920.218 18.2976 915.982 18.2976 910.815C18.2976 906.664 19.3988 903.021 21.6013 899.887C23.8038 896.753 26.8534 894.254 30.7501 892.39C34.6468 890.526 39.1365 889.51 44.2192 889.341L45.6169 874.982H56.7988L53.1139 889.722ZM87.8805 887.053H154.591L152.685 897.727H125.365L111.642 976H99.5706L113.294 897.727H85.9745L87.8805 887.053ZM135.421 971.299L184.215 887.053H197.811L217.252 974.602L205.689 977.271L200.352 951.857H159.183L145.078 977.017L135.421 971.299ZM164.901 941.692H198.192L189.171 898.871L164.901 941.692ZM243.566 888.07C247.463 887.307 251.232 886.714 254.875 886.291C258.517 885.783 262.668 885.529 267.327 885.529C274.189 885.529 279.822 886.587 284.227 888.705C288.717 890.738 292.063 893.449 294.266 896.837C296.468 900.141 297.569 903.699 297.569 907.511C297.569 913.271 295.96 917.973 292.741 921.615C289.522 925.173 284.778 927.884 278.509 929.748C283.253 931.527 287.15 934.068 290.199 937.372C293.249 940.675 294.774 944.953 294.774 950.205C294.774 956.305 292.953 961.387 289.31 965.453C285.667 969.52 280.839 972.569 274.824 974.602C268.895 976.551 262.457 977.525 255.51 977.525C249.496 977.525 244.244 977.059 239.754 976.127C235.264 975.28 231.537 974.39 228.572 973.459L243.566 888.07ZM266.819 895.059C264.193 895.059 261.864 895.143 259.831 895.313C257.797 895.482 255.934 895.736 254.24 896.075L249.03 925.427H261.482C269.699 925.427 275.799 923.818 279.78 920.599C283.761 917.295 285.752 913.483 285.752 909.163C285.752 905.182 284.143 901.835 280.924 899.125C277.789 896.414 273.088 895.059 266.819 895.059ZM247.378 934.83L242.041 965.708C246.531 966.894 251.317 967.487 256.4 967.487C264.701 967.487 271.097 965.919 275.587 962.785C280.161 959.566 282.448 955.5 282.448 950.587C282.448 947.706 281.644 945.08 280.034 942.709C278.425 940.337 275.841 938.431 272.283 936.991C268.81 935.55 264.193 934.83 258.433 934.83H247.378ZM375.993 976.635C371.334 976.635 367.776 975.534 365.32 973.332C362.863 971.044 361.635 967.529 361.635 962.785V959.99C358.246 965.326 354.223 969.604 349.563 972.823C344.989 975.958 339.567 977.525 333.299 977.525C328.979 977.525 324.997 976.593 321.355 974.729C317.797 972.866 314.917 970.113 312.714 966.47C310.596 962.743 309.537 958.253 309.537 953.001C309.537 951.053 309.622 949.274 309.792 947.664C309.961 945.97 310.215 944.106 310.554 942.073L319.957 887.053H332.028L322.244 944.742C321.99 946.266 321.821 947.579 321.736 948.681C321.651 949.697 321.609 950.841 321.609 952.111C321.609 956.686 322.964 960.328 325.675 963.039C328.386 965.665 332.071 966.978 336.73 966.978C340.626 966.978 344.481 965.792 348.293 963.42C352.189 961.048 355.578 957.575 358.458 953.001C361.423 948.427 363.456 942.878 364.557 936.355L373.325 887.053H385.396L372.944 957.448C372.859 957.872 372.774 958.38 372.69 958.973C372.69 959.481 372.69 960.032 372.69 960.625C372.69 962.912 373.325 964.564 374.596 965.581C375.951 966.597 377.815 967.105 380.186 967.105L375.993 976.635Z" fill="black" fill-opacity="0.2"/>
<path d="M492.114 889.722C495.333 890.23 498.34 891.035 501.136 892.136C503.931 893.153 506.599 894.381 509.141 895.821L503.296 904.97C500.5 903.276 497.62 901.835 494.655 900.649C491.69 899.379 488.175 898.743 484.109 898.743C479.45 898.743 475.638 899.76 472.673 901.793C469.792 903.741 468.352 906.325 468.352 909.544C468.352 912.255 469.369 914.754 471.402 917.041C473.52 919.328 477.289 921.954 482.711 924.919C487.709 927.63 491.606 930.298 494.401 932.924C497.281 935.466 499.314 938.176 500.5 941.057C501.686 943.852 502.279 947.029 502.279 950.587C502.279 957.533 499.907 962.954 495.163 966.851C490.504 970.748 484.448 973.035 476.993 973.713L475.595 988.071H464.413L468.098 973.713C463.693 973.289 459.712 972.357 456.154 970.917C452.596 969.393 449.335 967.444 446.37 965.072L453.613 956.051C456.323 958.507 459.331 960.498 462.634 962.023C465.938 963.463 469.75 964.183 474.07 964.183C479.068 964.183 483.092 963.082 486.142 960.879C489.191 958.592 490.716 955.542 490.716 951.73C490.716 949.612 490.25 947.664 489.318 945.885C488.387 944.106 486.735 942.243 484.363 940.294C481.991 938.346 478.602 936.143 474.197 933.687C468.098 930.214 463.736 926.825 461.11 923.521C458.568 920.218 457.298 915.982 457.298 910.815C457.298 906.664 458.399 903.021 460.601 899.887C462.804 896.753 465.853 894.254 469.75 892.39C473.647 890.526 478.137 889.51 483.219 889.341L484.617 874.982H495.799L492.114 889.722ZM526.881 887.053H593.591L591.685 897.727H564.365L550.642 976H538.571L552.294 897.727H524.975L526.881 887.053ZM574.421 971.299L623.215 887.053H636.811L656.252 974.602L644.689 977.271L639.352 951.857H598.183L584.078 977.017L574.421 971.299ZM603.901 941.692H637.192L628.171 898.871L603.901 941.692ZM682.566 888.07C686.463 887.307 690.232 886.714 693.875 886.291C697.517 885.783 701.668 885.529 706.327 885.529C713.189 885.529 718.822 886.587 723.227 888.705C727.717 890.738 731.063 893.449 733.266 896.837C735.468 900.141 736.569 903.699 736.569 907.511C736.569 913.271 734.96 917.973 731.741 921.615C728.522 925.173 723.778 927.884 717.509 929.748C722.253 931.527 726.15 934.068 729.199 937.372C732.249 940.675 733.774 944.953 733.774 950.205C733.774 956.305 731.953 961.387 728.31 965.453C724.667 969.52 719.839 972.569 713.824 974.602C707.895 976.551 701.457 977.525 694.51 977.525C688.496 977.525 683.244 977.059 678.754 976.127C674.264 975.28 670.537 974.39 667.572 973.459L682.566 888.07ZM705.819 895.059C703.193 895.059 700.864 895.143 698.831 895.313C696.797 895.482 694.934 895.736 693.24 896.075L688.03 925.427H700.482C708.699 925.427 714.799 923.818 718.78 920.599C722.761 917.295 724.752 913.483 724.752 909.163C724.752 905.182 723.143 901.835 719.924 899.125C716.789 896.414 712.088 895.059 705.819 895.059ZM686.378 934.83L681.041 965.708C685.531 966.894 690.317 967.487 695.4 967.487C703.701 967.487 710.097 965.919 714.587 962.785C719.161 959.566 721.448 955.5 721.448 950.587C721.448 947.706 720.644 945.08 719.034 942.709C717.425 940.337 714.841 938.431 711.283 936.991C707.81 935.55 703.193 934.83 697.433 934.83H686.378ZM814.993 976.635C810.334 976.635 806.776 975.534 804.32 973.332C801.863 971.044 800.635 967.529 800.635 962.785V959.99C797.246 965.326 793.223 969.604 788.563 972.823C783.989 975.958 778.567 977.525 772.299 977.525C767.979 977.525 763.997 976.593 760.355 974.729C756.797 972.866 753.917 970.113 751.714 966.47C749.596 962.743 748.537 958.253 748.537 953.001C748.537 951.053 748.622 949.274 748.792 947.664C748.961 945.97 749.215 944.106 749.554 942.073L758.957 887.053H771.028L761.244 944.742C760.99 946.266 760.821 947.579 760.736 948.681C760.651 949.697 760.609 950.841 760.609 952.111C760.609 956.686 761.964 960.328 764.675 963.039C767.386 965.665 771.071 966.978 775.73 966.978C779.626 966.978 783.481 965.792 787.293 963.42C791.189 961.048 794.578 957.575 797.458 953.001C800.423 948.427 802.456 942.878 803.557 936.355L812.325 887.053H824.396L811.944 957.448C811.859 957.872 811.774 958.38 811.69 958.973C811.69 959.481 811.69 960.032 811.69 960.625C811.69 962.912 812.325 964.564 813.596 965.581C814.951 966.597 816.815 967.105 819.186 967.105L814.993 976.635Z" fill="black" fill-opacity="0.2"/>
<path d="M931.114 889.722C934.333 890.23 937.34 891.035 940.136 892.136C942.931 893.153 945.599 894.381 948.141 895.821L942.296 904.97C939.5 903.276 936.62 901.835 933.655 900.649C930.69 899.379 927.175 898.743 923.109 898.743C918.45 898.743 914.638 899.76 911.673 901.793C908.792 903.741 907.352 906.325 907.352 909.544C907.352 912.255 908.369 914.754 910.402 917.041C912.52 919.328 916.289 921.954 921.711 924.919C926.709 927.63 930.606 930.298 933.401 932.924C936.281 935.466 938.314 938.176 939.5 941.057C940.686 943.852 941.279 947.029 941.279 950.587C941.279 957.533 938.907 962.954 934.163 966.851C929.504 970.748 923.448 973.035 915.993 973.713L914.595 988.071H903.413L907.098 973.713C902.693 973.289 898.712 972.357 895.154 970.917C891.596 969.393 888.335 967.444 885.37 965.072L892.613 956.051C895.323 958.507 898.331 960.498 901.634 962.023C904.938 963.463 908.75 964.183 913.07 964.183C918.068 964.183 922.092 963.082 925.142 960.879C928.191 958.592 929.716 955.542 929.716 951.73C929.716 949.612 929.25 947.664 928.318 945.885C927.387 944.106 925.735 942.243 923.363 940.294C920.991 938.346 917.602 936.143 913.197 933.687C907.098 930.214 902.736 926.825 900.11 923.521C897.568 920.218 896.298 915.982 896.298 910.815C896.298 906.664 897.399 903.021 899.601 899.887C901.804 896.753 904.853 894.254 908.75 892.39C912.647 890.526 917.137 889.51 922.219 889.341L923.617 874.982H934.799L931.114 889.722ZM965.881 887.053H1032.59L1030.68 897.727H1003.37L989.642 976H977.571L991.294 897.727H963.975L965.881 887.053ZM1013.42 971.299L1062.21 887.053H1075.81L1095.25 974.602L1083.69 977.271L1078.35 951.857H1037.18L1023.08 977.017L1013.42 971.299ZM1042.9 941.692H1076.19L1067.17 898.871L1042.9 941.692ZM1121.57 888.07C1125.46 887.307 1129.23 886.714 1132.87 886.291C1136.52 885.783 1140.67 885.529 1145.33 885.529C1152.19 885.529 1157.82 886.587 1162.23 888.705C1166.72 890.738 1170.06 893.449 1172.27 896.837C1174.47 900.141 1175.57 903.699 1175.57 907.511C1175.57 913.271 1173.96 917.973 1170.74 921.615C1167.52 925.173 1162.78 927.884 1156.51 929.748C1161.25 931.527 1165.15 934.068 1168.2 937.372C1171.25 940.675 1172.77 944.953 1172.77 950.205C1172.77 956.305 1170.95 961.387 1167.31 965.453C1163.67 969.52 1158.84 972.569 1152.82 974.602C1146.89 976.551 1140.46 977.525 1133.51 977.525C1127.5 977.525 1122.24 977.059 1117.75 976.127C1113.26 975.28 1109.54 974.39 1106.57 973.459L1121.57 888.07ZM1144.82 895.059C1142.19 895.059 1139.86 895.143 1137.83 895.313C1135.8 895.482 1133.93 895.736 1132.24 896.075L1127.03 925.427H1139.48C1147.7 925.427 1153.8 923.818 1157.78 920.599C1161.76 917.295 1163.75 913.483 1163.75 909.163C1163.75 905.182 1162.14 901.835 1158.92 899.125C1155.79 896.414 1151.09 895.059 1144.82 895.059ZM1125.38 934.83L1120.04 965.708C1124.53 966.894 1129.32 967.487 1134.4 967.487C1142.7 967.487 1149.1 965.919 1153.59 962.785C1158.16 959.566 1160.45 955.5 1160.45 950.587C1160.45 947.706 1159.64 945.08 1158.03 942.709C1156.42 940.337 1153.84 938.431 1150.28 936.991C1146.81 935.55 1142.19 934.83 1136.43 934.83H1125.38ZM1253.99 976.635C1249.33 976.635 1245.78 975.534 1243.32 973.332C1240.86 971.044 1239.63 967.529 1239.63 962.785V959.99C1236.25 965.326 1232.22 969.604 1227.56 972.823C1222.99 975.958 1217.57 977.525 1211.3 977.525C1206.98 977.525 1203 976.593 1199.35 974.729C1195.8 972.866 1192.92 970.113 1190.71 966.47C1188.6 962.743 1187.54 958.253 1187.54 953.001C1187.54 951.053 1187.62 949.274 1187.79 947.664C1187.96 945.97 1188.22 944.106 1188.55 942.073L1197.96 887.053H1210.03L1200.24 944.742C1199.99 946.266 1199.82 947.579 1199.74 948.681C1199.65 949.697 1199.61 950.841 1199.61 952.111C1199.61 956.686 1200.96 960.328 1203.67 963.039C1206.39 965.665 1210.07 966.978 1214.73 966.978C1218.63 966.978 1222.48 965.792 1226.29 963.42C1230.19 961.048 1233.58 957.575 1236.46 953.001C1239.42 948.427 1241.46 942.878 1242.56 936.355L1251.32 887.053H1263.4L1250.94 957.448C1250.86 957.872 1250.77 958.38 1250.69 958.973C1250.69 959.481 1250.69 960.032 1250.69 960.625C1250.69 962.912 1251.32 964.564 1252.6 965.581C1253.95 966.597 1255.81 967.105 1258.19 967.105L1253.99 976.635Z" fill="black" fill-opacity="0.2"/>
</svg>
